<svg xmlns="http://www.w3.org/2000/svg" viewBox="0 0 100 100"><circle cx="50" cy="50" r="49" fill="#50151f"/><path fill="#f4f1ea" transform="translate(15.542472666105972 71.44659377628258) scale(0.5719091673675357)" d="M56.3000 0L0.8000 0L0.9000-1L1-1Q4.6000-1 6.8000-2.9000Q9-4.8000 9-8.4000L9-8.4000L9-66Q9-69.6000 6.8000-71.8000Q4.6000-74 1-74L1-74L0.9000-75L54.5000-75L57.5000-54.9000L56.5000-54.9000Q53.5000-73.7000 32.8000-73.7000L32.8000-73.7000L24.4000-73.7000L24.4000-44.8000L33.4000-44.8000Q38.4000-44.8000 41.4000-47.8500Q44.4000-50.9000 44.4000-55.9000L44.4000-55.9000L45.4000-55.9000L45.4000-31.3000L44.4000-31.3000Q44.3000-36.7000 41-40.1000Q37.7000-43.5000 32.3000-43.5000L32.3000-43.5000L24.4000-43.5000L24.4000-8.4000Q24.4000-1.3000 31.4000-1.3000L31.4000-1.3000L35.6000-1.3000Q45.3000-1.3000 51-6.3000Q56.7000-11.3000 58.3000-22L58.3000-22L59.3000-22L56.3000 0ZM92.2000 0L60.6000 0L60.6000-1Q64.2000-1 66.4000-3.2000Q68.6000-5.4000 68.6000-9L68.6000-9L68.6000-66Q68.6000-69.6000 66.4000-71.8000Q64.2000-74 60.6000-74L60.6000-74L60.6000-75L94-75Q101.7000-74.9000 107.4500-72.3500Q113.2000-69.8000 116.4500-65.3000Q119.7000-60.8000 119.7000-54.7000L119.7000-54.7000Q119.7000-48.6000 116.4500-44.0500Q113.2000-39.5000 107.2500-36.9500Q101.3000-34.4000 93.2000-34.4000L93.2000-34.4000L84-34.4000L84-9Q84-5.4000 86.2000-3.2000Q88.4000-1 92-1L92-1L92.2000-1L92.2000 0ZM84-73.7000L84-35.7000L89.9000-35.7000Q94.2000-35.7000 97.3500-38.1500Q100.5000-40.6000 102.2500-44.9000Q104-49.2000 104-54.7000L104-54.7000Q104-60.2000 102.2500-64.5000Q100.5000-68.8000 97.3000-71.2500Q94.1000-73.7000 89.8000-73.7000L89.8000-73.7000L84-73.7000Z"/></svg>